<?xml version="1.0" encoding="UTF-8"?>
<!DOCTYPE svg PUBLIC "-//W3C//DTD SVG 1.1//EN" "http://www.w3.org/Graphics/SVG/1.1/DTD/svg11.dtd">
<svg xmlns="http://www.w3.org/2000/svg" version="1.1" width="183px" height="179px" style="shape-rendering:geometricPrecision; text-rendering:geometricPrecision; image-rendering:optimizeQuality; fill-rule:evenodd; clip-rule:evenodd" xmlns:xlink="http://www.w3.org/1999/xlink">
<g><path style="opacity:1" fill="#f8ab57" d="M 76.5,-0.5 C 85.5,-0.5 94.5,-0.5 103.5,-0.5C 104.209,0.403972 105.209,0.737305 106.5,0.5C 106.5,0.833333 106.5,1.16667 106.5,1.5C 93.1175,0.0580013 79.7842,0.391335 66.5,2.5C 69.7796,1.28794 73.1129,0.287939 76.5,-0.5 Z"/></g>
<g><path style="opacity:1" fill="#f7911e" d="M 106.5,1.5 C 111.834,2.83352 117.167,4.16685 122.5,5.5C 133.138,9.14622 142.471,14.8129 150.5,22.5C 151.419,25.0892 153.086,27.0892 155.5,28.5C 156.833,29.1667 157.833,30.1667 158.5,31.5C 158.738,33.4044 159.738,34.7377 161.5,35.5C 166.742,42.0958 170.742,49.4291 173.5,57.5C 173.345,60.716 174.345,63.3826 176.5,65.5C 179.38,77.0343 180.047,88.701 178.5,100.5C 176.374,104.445 175.374,108.778 175.5,113.5C 175.5,113.833 175.5,114.167 175.5,114.5C 173.215,117.335 171.882,120.668 171.5,124.5C 168.92,130.668 165.586,136.335 161.5,141.5C 160.094,141.973 159.427,142.973 159.5,144.5C 158.167,146.5 156.5,148.167 154.5,149.5C 153.094,149.973 152.427,150.973 152.5,152.5C 150.973,152.427 149.973,153.094 149.5,154.5C 142.702,162.075 134.369,167.409 124.5,170.5C 120.258,170.467 116.591,171.801 113.5,174.5C 110.456,176.011 107.122,176.678 103.5,176.5C 92.4836,176.583 81.4836,176.249 70.5,175.5C 66.4931,173.342 62.1598,172.009 57.5,171.5C 52.5156,169.674 47.8489,167.341 43.5,164.5C 43.0269,163.094 42.0269,162.427 40.5,162.5C 36.8726,160.206 33.5393,157.54 30.5,154.5C 29.4154,152.413 27.7488,151.08 25.5,150.5C 23.8333,148.5 22.1667,146.5 20.5,144.5C 20.573,142.973 19.9063,141.973 18.5,141.5C 14.4137,136.335 11.0804,130.668 8.5,124.5C 8.59794,122.447 7.93127,120.78 6.5,119.5C 5.45023,112.881 3.78356,106.548 1.5,100.5C -0.108328,89.2358 0.558339,78.2358 3.5,67.5C 5.2766,64.4954 6.2766,61.1621 6.5,57.5C 8.96001,49.2407 12.96,41.9074 18.5,35.5C 19.9063,35.0269 20.573,34.0269 20.5,32.5C 21.5,30.8333 22.8333,29.5 24.5,28.5C 27.1667,26.5 29.5,24.1667 31.5,21.5C 38.8195,14.1642 47.4862,8.83084 57.5,5.5C 60.7846,5.07191 63.7846,4.07191 66.5,2.5C 79.7842,0.391335 93.1175,0.0580013 106.5,1.5 Z"/></g>
<g><path style="opacity:0.569" fill="#f8c592" d="M 106.5,1.5 C 106.5,1.16667 106.5,0.833333 106.5,0.5C 112.225,1.25848 117.559,2.92515 122.5,5.5C 117.167,4.16685 111.834,2.83352 106.5,1.5 Z"/></g>
<g><path style="opacity:0.267" fill="#f8ca9c" d="M 66.5,2.5 C 63.7846,4.07191 60.7846,5.07191 57.5,5.5C 60.0836,3.52751 63.0836,2.52751 66.5,2.5 Z"/></g>
<g><path style="opacity:1" fill="#f7f4f3" d="M 19.5,112.5 C 18.4915,107.717 17.4915,103.05 16.5,98.5C 13.6049,62.4543 28.2715,36.2876 60.5,20C 88.7981,9.71741 114.798,13.7174 138.5,32C 165.772,58.7871 171.272,89.6204 155,124.5C 133.88,156.992 104.38,168.492 66.5,159C 43.6489,150.648 27.9822,135.148 19.5,112.5 Z"/></g>
<g><path style="opacity:0.537" fill="#f8c08c" d="M 31.5,21.5 C 29.5,24.1667 27.1667,26.5 24.5,28.5C 25.8333,25.1667 28.1667,22.8333 31.5,21.5 Z"/></g>
<g><path style="opacity:0.537" fill="#f9c799" d="M 150.5,22.5 C 152.914,23.9108 154.581,25.9108 155.5,28.5C 153.086,27.0892 151.419,25.0892 150.5,22.5 Z"/></g>
<g><path style="opacity:1" fill="#f7d4b7" d="M 103.5,31.5 C 99.8333,31.5 96.1667,31.5 92.5,31.5C 92.5,36.1667 92.5,40.8333 92.5,45.5C 88.8333,45.5 85.1667,45.5 81.5,45.5C 81.5,45.1667 81.5,44.8333 81.5,44.5C 84.8333,44.5 88.1667,44.5 91.5,44.5C 91.5,39.8333 91.5,35.1667 91.5,30.5C 95.7016,30.1832 99.7016,30.5166 103.5,31.5 Z"/></g>
<g><path style="opacity:0.784" fill="#f9bf86" d="M 158.5,31.5 C 160.262,32.2623 161.262,33.5956 161.5,35.5C 159.738,34.7377 158.738,33.4044 158.5,31.5 Z"/></g>
<g><path style="opacity:1" fill="#f79019" d="M 70.5,31.5 C 73.8333,31.5 77.1667,31.5 80.5,31.5C 80.1805,36.3633 80.5139,41.03 81.5,45.5C 85.1667,45.5 88.8333,45.5 92.5,45.5C 92.5,40.8333 92.5,36.1667 92.5,31.5C 96.1667,31.5 99.8333,31.5 103.5,31.5C 103.5,36.1667 103.5,40.8333 103.5,45.5C 110.471,45.3217 116.804,47.155 122.5,51C 129.597,57.1101 131.43,64.6101 128,73.5C 124.331,79.4998 119.165,83.6664 112.5,86C 130.149,90.1183 136.315,100.952 131,118.5C 127.621,123.955 122.788,127.621 116.5,129.5C 112.274,130.07 108.108,130.737 104,131.5C 103.501,136.155 103.334,140.821 103.5,145.5C 99.8333,145.5 96.1667,145.5 92.5,145.5C 92.5,140.833 92.5,136.167 92.5,131.5C 88.8333,131.5 85.1667,131.5 81.5,131.5C 80.5139,135.97 80.1805,140.637 80.5,145.5C 77.1667,145.5 73.8333,145.5 70.5,145.5C 70.8195,140.637 70.4861,135.97 69.5,131.5C 62.1667,131.5 54.8333,131.5 47.5,131.5C 47.5,128.167 47.5,124.833 47.5,121.5C 51.5463,121.85 55.3797,121.183 59,119.5C 60.1315,109.069 60.6315,98.569 60.5,88C 60.3333,78.5 60.1667,69 60,59.5C 59.5,57.6667 58.3333,56.5 56.5,56C 53.5184,55.502 50.5184,55.3354 47.5,55.5C 47.5,52.1667 47.5,48.8333 47.5,45.5C 54.8333,45.5 62.1667,45.5 69.5,45.5C 69.1805,40.6367 69.5139,35.97 70.5,31.5 Z"/></g>
<g><path style="opacity:1" fill="#f7b270" d="M 70.5,31.5 C 73.9619,30.5184 77.6286,30.185 81.5,30.5C 81.5,35.1667 81.5,39.8333 81.5,44.5C 81.5,44.8333 81.5,45.1667 81.5,45.5C 80.5139,41.03 80.1805,36.3633 80.5,31.5C 77.1667,31.5 73.8333,31.5 70.5,31.5 Z"/></g>
<g><path style="opacity:0.431" fill="#f8c493" d="M 20.5,32.5 C 20.573,34.0269 19.9063,35.0269 18.5,35.5C 18.427,33.9731 19.0937,32.9731 20.5,32.5 Z"/></g>
<g><path style="opacity:1" fill="#f7f3f0" d="M 81.5,55.5 C 87.5933,55.1392 93.5933,55.6392 99.5,57C 107.084,60.6889 109.251,66.5222 106,74.5C 103.588,78.2956 100.088,80.4623 95.5,81C 90.8452,81.4992 86.1785,81.6658 81.5,81.5C 81.5,72.8333 81.5,64.1667 81.5,55.5 Z"/></g>
<g><path style="opacity:0.765" fill="#f8b775" d="M 6.5,57.5 C 6.2766,61.1621 5.2766,64.4954 3.5,67.5C 3.7234,63.8379 4.7234,60.5046 6.5,57.5 Z"/></g>
<g><path style="opacity:0.722" fill="#f8bc7f" d="M 173.5,57.5 C 174.871,59.936 175.871,62.6027 176.5,65.5C 174.345,63.3826 173.345,60.716 173.5,57.5 Z"/></g>
<g><path style="opacity:1" fill="#f7b878" d="M 97.5,92.5 C 92.1667,92.5 86.8333,92.5 81.5,92.5C 81.5,101.833 81.5,111.167 81.5,120.5C 86.5,120.5 91.5,120.5 96.5,120.5C 91.3595,121.488 86.0262,121.821 80.5,121.5C 80.5,111.5 80.5,101.5 80.5,91.5C 86.358,91.1778 92.0247,91.5111 97.5,92.5 Z"/></g>
<g><path style="opacity:1" fill="#f7f5f3" d="M 97.5,92.5 C 109.931,95.0205 113.765,102.354 109,114.5C 105.805,118.51 101.638,120.51 96.5,120.5C 91.5,120.5 86.5,120.5 81.5,120.5C 81.5,111.167 81.5,101.833 81.5,92.5C 86.8333,92.5 92.1667,92.5 97.5,92.5 Z"/></g>
<g><path style="opacity:0.816" fill="#f9b773" d="M 1.5,100.5 C 3.78356,106.548 5.45023,112.881 6.5,119.5C 3.76271,113.556 2.09604,107.223 1.5,100.5 Z"/></g>
<g><path style="opacity:0.784" fill="#f9ba7b" d="M 178.5,100.5 C 178.118,105.092 177.118,109.425 175.5,113.5C 175.374,108.778 176.374,104.445 178.5,100.5 Z"/></g>
<g><path style="opacity:1" fill="#f8ab58" d="M 16.5,98.5 C 17.4915,103.05 18.4915,107.717 19.5,112.5C 17.0439,108.262 16.0439,103.596 16.5,98.5 Z"/></g>
<g><path style="opacity:0.514" fill="#f8c490" d="M 175.5,114.5 C 174.733,118.149 173.4,121.482 171.5,124.5C 171.882,120.668 173.215,117.335 175.5,114.5 Z"/></g>
<g><path style="opacity:0.318" fill="#f8c99a" d="M 6.5,119.5 C 7.93127,120.78 8.59794,122.447 8.5,124.5C 7.06873,123.22 6.40206,121.553 6.5,119.5 Z"/></g>
<g><path style="opacity:1" fill="#f7b372" d="M 69.5,131.5 C 70.4861,135.97 70.8195,140.637 70.5,145.5C 73.8333,145.5 77.1667,145.5 80.5,145.5C 80.1805,140.637 80.5139,135.97 81.5,131.5C 81.5,136.5 81.5,141.5 81.5,146.5C 77.5,146.5 73.5,146.5 69.5,146.5C 69.5,141.5 69.5,136.5 69.5,131.5 Z"/></g>
<g><path style="opacity:0.031" fill="#f8d0ad" d="M 18.5,141.5 C 19.9063,141.973 20.573,142.973 20.5,144.5C 19.0937,144.027 18.427,143.027 18.5,141.5 Z"/></g>
<g><path style="opacity:0.012" fill="#f8d3b1" d="M 161.5,141.5 C 161.573,143.027 160.906,144.027 159.5,144.5C 159.427,142.973 160.094,141.973 161.5,141.5 Z"/></g>
<g><path style="opacity:0.545" fill="#f9c89a" d="M 25.5,150.5 C 27.7488,151.08 29.4154,152.413 30.5,154.5C 28.2512,153.92 26.5846,152.587 25.5,150.5 Z"/></g>
<g><path style="opacity:0.02" fill="#f9d1ad" d="M 154.5,149.5 C 154.573,151.027 153.906,152.027 152.5,152.5C 152.427,150.973 153.094,149.973 154.5,149.5 Z"/></g>
<g><path style="opacity:0.012" fill="#f8d5b6" d="M 152.5,152.5 C 152.027,153.906 151.027,154.573 149.5,154.5C 149.973,153.094 150.973,152.427 152.5,152.5 Z"/></g>
<g><path style="opacity:0.412" fill="#f8c490" d="M 40.5,162.5 C 42.0269,162.427 43.0269,163.094 43.5,164.5C 41.9731,164.573 40.9731,163.906 40.5,162.5 Z"/></g>
<g><path style="opacity:1" fill="#fab470" d="M 124.5,170.5 C 121.203,172.601 117.537,173.935 113.5,174.5C 116.591,171.801 120.258,170.467 124.5,170.5 Z"/></g>
<g><path style="opacity:0.722" fill="#f9b979" d="M 57.5,171.5 C 62.1598,172.009 66.4931,173.342 70.5,175.5C 65.8354,174.943 61.5021,173.61 57.5,171.5 Z"/></g>
<g><path style="opacity:0.776" fill="#f8b062" d="M 70.5,175.5 C 81.4836,176.249 92.4836,176.583 103.5,176.5C 99.1795,177.166 94.6795,177.499 90,177.5C 83.2621,177.686 76.7621,177.019 70.5,175.5 Z"/></g>
</svg>
